<svg width="219" height="34" viewBox="0 0 219 34" fill="none" xmlns="http://www.w3.org/2000/svg">
<g clip-path="url(#clip0_276_2751)">
<path d="M11.3475 8.57715H13.9166V20.1975H11.3475V8.57715ZM5.20007 27.5239V21.5464H7.76921V25.0578H13.9166V27.5239H5.20007ZM3.4444 15.4505C4.08797 15.4505 4.45867 14.9099 4.45867 14.4362C4.45867 13.9626 4.08797 13.422 3.4444 13.422C2.86776 13.422 2.46617 13.9626 2.46617 14.4362C2.46617 14.9099 2.87291 15.4505 3.4444 15.4505ZM3.4444 10.9918C5.33393 10.9918 6.8888 12.4798 6.8888 14.4362C6.8888 16.3258 5.33393 17.7828 3.4444 17.7828C1.58576 17.7828 0 16.3309 0 14.4362C0 12.4746 1.58576 10.9918 3.4444 10.9918Z" fill="#342B27"/>
<path d="M23.5445 27.5242V21.5467H26.1137V25.058H32.2611V27.5242H23.5445ZM26.1137 13.4377H29.6919V8.57227H32.2611V20.1926H29.6919V15.9038H26.1137V13.4377ZM21.619 14.6218L24.7287 17.4948L23.1429 19.2195L20.4091 16.7225L17.6752 19.2195L16.0534 17.4639L19.1631 14.627H16.0225V12.1608H19.1322V9.56079H21.6653V12.1608H24.6721V14.627H21.619V14.6218Z" fill="#342B27"/>
<path d="M45.9562 8.57715H48.5253V22.813H45.9562V8.57715ZM39.4432 15.466C40.0868 15.466 40.4575 14.9253 40.4575 14.4517C40.4575 13.978 40.0868 13.4374 39.4432 13.4374C38.8666 13.4374 38.465 13.978 38.465 14.4517C38.465 14.9253 38.8717 15.466 39.4432 15.466ZM39.4432 11.0073C41.3328 11.0073 42.8876 12.4952 42.8876 14.4517C42.8876 16.3412 41.3328 17.7983 39.4432 17.7983C37.5846 17.7983 35.9988 16.3464 35.9988 14.4517C35.9988 12.4952 37.5846 11.0073 39.4432 11.0073ZM35.0566 20.1615H44.8801V22.6276H35.0566V20.1615Z" fill="#342B27"/>
<path d="M154.416 15.6211H156.697V28.2763H154.416V15.6211ZM148.629 21.7428C149.201 21.7428 149.53 21.2639 149.53 20.8418C149.53 20.4196 149.201 19.9408 148.629 19.9408C148.119 19.9408 147.759 20.4196 147.759 20.8418C147.754 21.2639 148.114 21.7428 148.629 21.7428ZM148.629 17.7783C150.313 17.7783 151.693 19.1015 151.693 20.8418C151.693 22.5202 150.313 23.8125 148.629 23.8125C146.976 23.8125 145.566 22.5202 145.566 20.8418C145.566 19.1015 146.976 17.7783 148.629 17.7783ZM144.727 25.9183H153.459V28.1115H144.727V25.9183Z" fill="#342B27"/>
<path d="M95.6602 27.957V24.147H93.9508V27.9621H91.67V17.6289H93.9508V21.9537H95.6602V17.6289H97.941V27.957H95.6602ZM89.5334 23.7557V25.949H82.9277V19.9406H89.5334V22.1339H85.2086V23.7557H89.5334Z" fill="#342B27"/>
<path d="M110.37 27.9462V17.6182H112.651V21.943H115.683V24.1363H112.651V27.9514H110.37V27.9462ZM104.758 32.4615V27.1482H107.039V30.2682H112.501V32.4615H104.758ZM103.857 23.6935C104.428 23.6935 104.758 23.2147 104.758 22.7925C104.758 22.3703 104.428 21.8915 103.857 21.8915C103.347 21.8915 102.987 22.3703 102.987 22.7925C102.987 23.2147 103.347 23.6935 103.857 23.6935ZM100.943 21.8349H99.8926V19.9453H102.745V17.6336H104.995V19.9453H107.785V21.8349H106.766C106.853 22.1335 106.915 22.4681 106.915 22.7976C106.915 24.4812 105.535 25.7684 103.852 25.7684C102.199 25.7684 100.788 24.4761 100.788 22.7976C100.794 22.463 100.824 22.1335 100.943 21.8349Z" fill="#342B27"/>
<path d="M127.067 16.5322H129.347V26.8603H127.067V16.5322ZM121.63 32.4619V27.1486H123.911V30.2686H129.301V32.4619H121.63ZM121.63 21.202H119.349V23.0658H121.63V21.202ZM123.792 25.1355H117.187V19.1323H123.792V25.1355Z" fill="#342B27"/>
<path d="M131.237 23.9509V26.1442H136.17V28.2139H133.091V30.4072H137.972V33.7075H140.252V28.2139H138.42V26.1442H142.101V23.9509H131.237ZM133.611 15.9346V18.1279H137.606V22.0614H139.887V15.9346H133.611Z" fill="#342B27"/>
<path d="M180.211 11.9189H184.685V32.1786H180.211V11.9189ZM170.83 19.8375H165.265V24.3785H170.83V19.8375ZM174.476 28.2605H161.517V16.4806H174.476V28.2605Z" fill="#0069B5"/>
<path d="M214.52 11.9189V20.3987H211.164V11.9189H206.689V32.1786H211.164V24.6977H214.52V32.1786H219V11.9189H214.52Z" fill="#0069B5"/>
<path d="M68.6304 9.84404V3.78931H64.0585V0.416992H72.1469V9.84404H68.6304ZM64.8617 22.6022H62.2256V25.4185H64.8617V22.6022ZM65.4177 16.1305V19.3174H68.2855V28.6981H58.8121V19.3174H61.9527V16.1305H65.4177ZM58.1376 9.84404V3.78931H53.5605V0.416992H61.649V9.84404H58.1376Z" fill="#A7385E"/>
<path d="M58.6577 16.8669C55.7333 16.8669 53.7408 16.7485 53.4834 16.7331L53.6687 13.7469C53.8695 13.7572 73.7431 14.9053 82.6141 9.66406L84.1329 12.2384C77.378 16.2388 65.4847 16.8669 58.6577 16.8669Z" fill="#A7385E"/>
<path d="M189.612 30.8503V20.4862H197.799V18.6584H189.612V14.3594H202.273V24.7852H194.086V26.5512H202.273V30.8503H189.612Z" fill="#0069B5"/>
<path d="M87.4228 0V3.30539L84.4315 2.28597L83.7158 4.61313L86.7071 5.63255L84.8588 8.30981L86.738 9.74626L88.5864 7.07415L90.4347 9.74111L92.3191 8.30466L90.4656 5.6377L93.4569 4.60798L92.7413 2.28597L89.75 3.31054V0H87.4228Z" fill="#F7B02A"/>
</g>
<defs>
<clipPath id="clip0_276_2751">
<rect width="219" height="33.7078" fill="white"/>
</clipPath>
</defs>
</svg>
