<?xml version="1.0" standalone="no"?>
<!DOCTYPE svg PUBLIC "-//W3C//DTD SVG 20010904//EN"
 "http://www.w3.org/TR/2001/REC-SVG-20010904/DTD/svg10.dtd">
<svg version="1.0" xmlns="http://www.w3.org/2000/svg"
 width="192.000000pt" height="192.000000pt" viewBox="0 0 192.000000 192.000000"
 preserveAspectRatio="xMidYMid meet">
<metadata>
Created by potrace 1.11, written by Peter Selinger 2001-2013
</metadata>
<g transform="translate(0.000000,192.000000) scale(0.100000,-0.100000)"
fill="#000000" stroke="none">
<path d="M776 1904 c-99 -19 -160 -41 -256 -90 -184 -94 -326 -240 -421 -429
-77 -156 -93 -228 -93 -425 0 -197 16 -269 93 -425 122 -245 330 -420 597
-501 82 -26 102 -28 264 -28 162 0 182 2 263 27 162 50 306 135 418 246 59 59
158 191 144 191 -3 0 -25 -10 -47 -21 -114 -58 -251 -89 -394 -89 -128 0 -233
20 -337 65 -210 90 -337 216 -397 395 -33 98 -26 213 17 301 39 79 102 140
181 177 49 23 70 27 152 27 82 0 103 -4 152 -27 209 -97 281 -357 154 -547
-19 -28 -33 -51 -30 -51 3 0 28 21 56 48 91 85 160 203 204 349 22 74 27 108
27 213 1 145 -14 213 -73 336 -66 137 -193 237 -334 263 -80 15 -255 12 -340
-5z"/>
<path d="M1564 1694 c32 -80 58 -175 67 -241 39 -277 -97 -579 -333 -741 -60
-41 -183 -100 -225 -108 -63 -12 -34 -25 40 -18 384 36 685 327 723 699 6 54
3 67 -21 116 -49 97 -147 223 -219 281 -31 25 -38 27 -32 12z"/>
<path d="M1874 1010 c-56 -116 -137 -216 -236 -291 -249 -188 -533 -224 -823
-105 l-40 17 40 -36 c53 -47 182 -110 281 -136 120 -32 289 -30 409 5 147 44
309 147 369 235 33 48 48 140 44 281 l-3 115 -41 -85z"/>
</g>
</svg>
